# xmcd CD database file
#
# Track frame offsets:
#	150
#	21643
#	48808
#	63615
#	109966
#	126214
#	153285
#	175261
#	195266
#	205708
#	223151
#	233808
#	253357
#
# Disc length: 4426 seconds
#
# Revision: 0
# Processed by: cddbd v1.5.2PL0 Copyright (c) Steve Scherf et al.
# Submitted via: CDex 1.51
#
DISCID=be11480d
DTITLE=Thomas Gansch - A Night At Jazzland
DYEAR=2011
DGENRE=Jazz
TTITLE0=Dinah
TTITLE1=StThomas Ragtime Band
TTITLE2=When The Saints Go Giant Steps
TTITLE3=I Hear Buddy Bolden Play
TTITLE4=Ich kenn ein kleines Wegerl im Helenental
TTITLE5=Tiger Rag
TTITLE6=Black And Tan Fantasy
TTITLE7=The Pearls
TTITLE8=Sugar Foot Stomp
TTITLE9=Das kleine Koffergrammophon
TTITLE10=Wiskey Soda
TTITLE11=Panama
TTITLE12=Zwei in einer grossen Stadt
EXTD=YEAR: 2011
EXTT0=
EXTT1=
EXTT2=
EXTT3=
EXTT4=
EXTT5=
EXTT6=
EXTT7=
EXTT8=
EXTT9=
EXTT10=
EXTT11=
EXTT12=
PLAYORDER=
